<svg viewBox="0 0 32 32" xmlns="http://www.w3.org/2000/svg" xml:space="preserve" style="fill-rule:evenodd;clip-rule:evenodd;stroke-linejoin:round;stroke-miterlimit:2"><path style="fill:none" d="M0 0h32v32H0z"/><clipPath id="a"><path d="M0 0h32v32H0z"/></clipPath><g clip-path="url(#a)"><path d="M24.093 3.855a1.562 1.562 0 0 0-1.843-.678c-1.317.485-2.391 1.859-3.445 4.161l7.255 3.056c-.41-2.495-.977-4.788-1.967-6.539Z" style="fill:#92a2d5"/><clipPath id="b"><path d="M24.093 3.855a1.562 1.562 0 0 0-1.843-.678c-1.317.485-2.391 1.859-3.445 4.161l7.255 3.056c-.41-2.495-.977-4.788-1.967-6.539Z"/></clipPath><g clip-path="url(#b)"><path d="M26.239 10.711c1.84-2.102-1.277-8.772-4.054-7.937-1.636.464-2.669 2.414-3.35 4.466l1.658.539c.114.046.301.074.362-.101.493-1.584 1.224-2.725 2.22-3.371.409-.112.713.146.928.717.509 1.623.657 2.584.694 3.34l.128 1.887 1.414.46Z" style="fill:#341e44"/></g><path d="M12.259 7.552C10.056 4.66 8.066 3.358 6.582 4.185 4.801 6.073 4.754 9.787 5.21 13.733l3.588-3.477 2.669-2.119c.443.075.764-.198.792-.585Z" style="fill:#92a2d5"/><clipPath id="c"><path d="M12.259 7.552C10.056 4.66 8.066 3.358 6.582 4.185 4.801 6.073 4.754 9.787 5.21 13.733l3.588-3.477 2.669-2.119c.443.075.764-.198.792-.585Z"/></clipPath><g clip-path="url(#c)"><path d="M11.74 5.007 6.408 3.363c-1.984 3.559-2.966 6.889-1.516 10.834l1.997-2.283c.036-2.219.134-4.181.306-5.829.136-.778.453-1.074.976-.822.857.665 1.625 1.49 2.655 2.65.217.166.572.254.868.227.528-.093.544-.358.556-.568l-.51-2.565Z" style="fill:#311746"/></g><path d="M26.052 10.328c-8.968-5.623-15.86-4.311-20.841 3.389.257 7.488.195 16.535 1.723 18.769l21.971-.364c-1.25-2.455-.774-6.159-2.853-21.794Z" style="fill:#92a2d5"/><g><path d="M31.394 20.077a25.66 25.66 0 0 0-3.233-.978 18.83 18.83 0 0 0-3.632-.491c-.059.034-.033.089.093.109 1.61.091 3.226.283 6.772 1.36Z" style="fill:#83889e"/><path d="M31.542 17.37a34.479 34.479 0 0 0-3.904-.557 24.874 24.874 0 0 0-4.236-.015c-.059.042-.016.094.131.097 1.847-.121 3.726-.14 8.009.475Z" style="fill:#7882a5"/><path d="M31.688 13.98a28.37 28.37 0 0 0-3.552-.317 20.64 20.64 0 0 0-3.847.24c-.054.045-.014.094.12.089 1.676-.232 3.382-.365 7.279-.012Z" style="fill:#767e95"/><path d="M31.595 12.091a28.54 28.54 0 0 0-3.564.136 20.751 20.751 0 0 0-3.785.728c-.047.051-.001.094.131.072 1.632-.443 3.308-.791 7.218-.936Z" style="fill:#6f779b"/><path d="M31.32 9.834c-3.023.257-6.039.718-7.546 1.553-.039.111.118.165.206.122 1.37-.795 3.466-1.126 7.34-1.675Z" style="fill:#555972"/><path d="M10.408 19.567c-3.144.877-6.139 1.924-9.02 3.189a110.45 110.45 0 0 1 8.983-2.927c.32-.191.146-.269.037-.262Z" style="fill:#424d7b"/><path d="M10.177 17.41c-3.201.53-6.267 1.227-9.235 2.132 3.117-.766 6.18-1.408 9.177-1.896.333-.147.167-.232.058-.236Z" style="fill:#394a7e"/><path d="M8.894 15.799c-3.031.316-5.939.783-8.762 1.434 2.959-.525 5.864-.943 8.701-1.233.319-.112.164-.193.061-.201Z" style="fill:#717da5"/><path d="M8.242 14.112a45.317 45.317 0 0 0-7.59.736c2.554-.327 5.071-.547 7.547-.616.273-.063.133-.113.043-.12Z" style="fill:#7983a6"/></g><g><path d="M20.496 8.2c-3.719-1.275-7.661-.71-10.411 1.121-2.407 1.784-3.977 4.201-2.85 7.331 1.639 2.408 4.866 3.837 11.176 3.367 3.172-.652 6.332-2.859 7.159-5.318.435-2.554-.848-4.937-5.074-6.501Z" style="fill:#443061"/><path d="M12.713 10.228c1.569 0 2.907.902 3.022 2.408.132 1.732-1.539 3.107-3.189 2.973-1.669-.134-2.871-1.198-2.731-2.715.139-1.502 1.329-2.666 2.898-2.666Z" style="fill:#1c092a"/><path d="M21.239 8.958c1.373 0 2.763.9 2.862 2.2.108 1.408-1.032 2.666-2.487 2.589-1.371-.071-2.845-1.274-2.845-2.583 0-1.308 1.098-2.206 2.47-2.206Z" style="fill:#260f31"/><path d="M19.541 11.938c-1.614-.007-3.178.241-4.234.68.042.044.057.139.103.182.604.571 1.298.895 2.203 1.381.195.107.275.313.294.573l-.004 5.261c-.139.641-.132 1.487-.099 1.819.359-.634.576-1.258.75-1.878l-.019-4.406 1.427 4.758c.136.528.38.688.655.748.029-.189.02-.375-.001-.559l-1.922-5.712c-.09-.255-.083-.482.082-.665.527-.695.96-1.336 1.269-1.904l-.504-.278Z" style="fill:#180620"/><clipPath id="d"><path d="M19.541 11.938c-1.614-.007-3.178.241-4.234.68.042.044.057.139.103.182.604.571 1.298.895 2.203 1.381.195.107.275.313.294.573l-.004 5.261c-.139.641-.132 1.487-.099 1.819.359-.634.576-1.258.75-1.878l-.019-4.406 1.427 4.758c.136.528.38.688.655.748.029-.189.02-.375-.001-.559l-1.922-5.712c-.09-.255-.083-.482.082-.665.527-.695.96-1.336 1.269-1.904l-.504-.278Z"/></clipPath><g clip-path="url(#d)"><path d="M18.818 19.883c-.419.198-.843.187-1.267.096l-.025 1.81.603.265.689-2.171Z" style="fill:#52619a"/><path d="M20.382 19.586c-.053.024.145.803.029.823-.154.025-.584-.682-.669-.8l-.414 1.922h1.788l-.734-1.945Z" style="fill:#526496"/></g><path d="M12.889 9.664c1.612-.043 2.738 1.042 2.753 2.482.013 1.344-1.189 2.375-2.753 2.482-1.561.107-2.85-.982-2.754-2.482.088-1.379 1.283-2.442 2.754-2.482Z" style="fill:#e2d4c9"/><clipPath id="e"><path d="M12.889 9.664c1.612-.043 2.738 1.042 2.753 2.482.013 1.344-1.189 2.375-2.753 2.482-1.561.107-2.85-.982-2.754-2.482.088-1.379 1.283-2.442 2.754-2.482Z"/></clipPath><g clip-path="url(#e)"><path d="M13.431 10.986c.5.135.912.554.912 1.086 0 .533-.375.916-.897.916-.521 0-1.033-.486-1.099-1.015-.084-.681.468-1.152 1.084-.987Z" style="fill:#1b0a2e"/></g><g><path d="M21.157 8.267c1.449.083 2.632 1.155 2.573 2.428-.059 1.306-1.05 2.234-2.474 2.157-1.313-.071-2.504-1.115-2.595-2.312-.103-1.333 1.098-2.353 2.496-2.273Z" style="fill:#f1e1d4"/><clipPath id="f"><path d="M21.157 8.267c1.449.083 2.632 1.155 2.573 2.428-.059 1.306-1.05 2.234-2.474 2.157-1.313-.071-2.504-1.115-2.595-2.312-.103-1.333 1.098-2.353 2.496-2.273Z"/></clipPath><g clip-path="url(#f)"><path d="M21.077 9.388c.427.09.8.422.846.906.048.499-.141.847-.61.895-.493.051-.959-.188-1.144-.685-.216-.581.165-1.273.908-1.116Z" style="fill:#1a0d21"/></g></g></g></g></svg>
